<?xml version="1.0" standalone="no"?>
<!DOCTYPE svg PUBLIC "-//W3C//DTD SVG 20010904//EN"
 "http://www.w3.org/TR/2001/REC-SVG-20010904/DTD/svg10.dtd">
<svg version="1.0" xmlns="http://www.w3.org/2000/svg"
 width="1882.000000pt" height="287.000000pt" viewBox="0 0 1882.000000 287.000000"
 preserveAspectRatio="xMidYMid meet">

<g transform="translate(0.000000,287.000000) scale(0.100000,-0.100000)"
fill="#000000" stroke="none">
<path d="M11210 1655 l0 -865 94 0 c76 0 95 3 100 16 3 9 6 179 6 379 0 380 4
428 45 520 48 109 169 171 323 164 63 -3 90 -10 137 -34 52 -27 63 -38 90 -89
l30 -60 3 -448 3 -448 99 0 100 0 0 393 c0 574 -10 629 -128 739 -85 78 -147
98 -304 98 -93 0 -132 -4 -180 -21 -78 -26 -145 -70 -182 -120 -31 -40 -65
-55 -50 -21 9 21 18 603 10 637 -6 24 -9 25 -101 25 l-95 0 0 -865z"/>
<path d="M4840 2454 c-8 -3 -25 -19 -37 -37 -42 -60 -23 -151 37 -182 85 -44
170 13 170 116 0 33 -6 47 -34 75 -29 29 -41 34 -77 33 -24 -1 -51 -3 -59 -5z"/>
<path d="M9247 2449 c-40 -23 -58 -106 -36 -168 19 -55 97 -78 158 -46 30 15
61 69 61 104 0 34 -26 87 -51 105 -27 18 -104 21 -132 5z"/>
<path d="M210 1600 l0 -810 91 0 91 0 -4 715 c-2 546 0 709 9 688 6 -16 23
-59 38 -98 15 -38 31 -79 35 -90 5 -11 32 -83 60 -160 64 -175 138 -370 154
-410 8 -16 35 -88 60 -160 26 -71 58 -158 72 -193 13 -34 35 -92 49 -130 15
-37 34 -87 44 -112 l17 -45 84 0 83 0 34 90 c19 50 40 106 47 125 8 19 19 51
26 70 7 19 17 44 22 54 6 10 18 42 28 70 18 51 91 244 130 346 12 30 30 80 41
110 11 30 26 69 34 87 8 17 15 35 15 39 0 5 16 49 36 99 19 49 47 119 61 155
46 118 68 170 73 170 3 0 4 -319 2 -710 l-2 -710 95 0 95 0 0 810 0 810 -149
0 -149 0 -12 -32 c-6 -18 -20 -53 -30 -78 -10 -25 -27 -70 -38 -100 -24 -66
-55 -146 -112 -295 -23 -60 -53 -137 -65 -170 -24 -64 -56 -146 -131 -340 -25
-66 -53 -140 -61 -165 -8 -25 -19 -49 -23 -55 -4 -5 -11 -24 -14 -42 -4 -17
-14 -37 -21 -43 -12 -10 -17 -7 -25 16 -6 16 -18 42 -26 59 -8 17 -18 44 -24
60 -19 63 -190 517 -221 590 -11 26 -57 149 -74 200 -8 22 -35 94 -60 160 -26
66 -53 140 -61 164 -23 72 -20 71 -180 71 l-144 0 0 -810z"/>
<path d="M7507 2403 c-4 -3 -7 -368 -7 -810 l0 -803 83 0 c51 0 88 5 95 12 15
15 17 976 1 1187 -5 79 -7 146 -4 150 7 6 36 -29 57 -68 7 -14 58 -94 113
-177 55 -84 122 -188 149 -231 41 -64 213 -331 264 -409 7 -10 25 -38 40 -62
67 -107 213 -331 237 -365 l27 -38 111 3 112 3 3 794 c1 578 -1 797 -9 807 -8
10 -36 14 -90 14 -75 0 -79 -1 -85 -24 -7 -28 3 -1008 12 -1193 4 -82 2 -123
-5 -123 -10 0 -18 11 -181 265 -56 88 -132 206 -169 263 -139 216 -219 340
-268 417 -29 44 -98 151 -155 238 l-103 157 -111 0 c-61 0 -114 -3 -117 -7z"/>
<path d="M14760 2194 c0 -132 3 -175 13 -178 60 -14 157 -52 189 -73 l39 -26
125 124 c68 68 124 126 124 129 0 9 -147 92 -215 122 -74 33 -112 45 -203 62
l-72 14 0 -174z"/>
<path d="M14454 2336 c-50 -13 -119 -38 -155 -56 -62 -32 -179 -106 -179 -115
0 -2 54 -59 121 -126 l120 -123 27 18 c43 27 128 65 177 77 l45 11 0 169 0
169 -32 0 c-18 -1 -74 -12 -124 -24z"/>
<path d="M12724 2272 c-8 -6 -46 -115 -73 -212 -5 -19 -29 -36 -96 -70 l-90
-45 -3 -42 -3 -42 88 -3 88 -3 6 -420 c3 -231 9 -433 14 -450 19 -70 93 -152
170 -187 43 -19 67 -23 165 -23 69 0 134 6 163 14 l47 14 0 68 c0 49 -4 69
-12 69 -7 0 -46 -5 -86 -10 -128 -17 -201 11 -245 93 -22 41 -22 48 -22 437
l0 395 178 3 177 2 0 60 c0 87 -7 90 -202 90 l-158 0 0 135 0 135 -47 0 c-27
0 -53 -4 -59 -8z"/>
<path d="M15236 1941 l-128 -128 24 -39 c27 -42 64 -132 73 -176 l5 -28 256 0
256 0 -8 32 c-3 18 -21 51 -39 73 -18 22 -67 93 -109 157 -68 105 -177 238
-195 238 -3 0 -64 -58 -135 -129z"/>
<path d="M13957 1983 c-71 -108 -103 -182 -132 -303 -28 -120 -42 -110 159
-110 l173 0 7 39 c3 21 24 75 47 121 l41 82 -118 119 c-65 66 -122 119 -126
119 -3 0 -27 -30 -51 -67z"/>
<path d="M2615 2015 c-139 -25 -279 -124 -349 -245 -60 -106 -70 -158 -70
-365 -1 -169 2 -197 21 -250 34 -97 74 -161 143 -231 99 -101 191 -142 340
-151 218 -13 367 50 492 207 78 100 118 239 118 417 0 226 -56 373 -188 494
-128 118 -305 161 -507 124z m260 -165 c109 -38 169 -106 211 -245 26 -85 26
-325 0 -410 -28 -91 -61 -149 -107 -188 -68 -59 -103 -71 -210 -75 -117 -5
-162 7 -230 57 -56 43 -86 86 -121 177 -21 54 -23 74 -23 244 l0 185 44 89
c49 97 90 136 179 168 67 24 185 23 257 -2z"/>
<path d="M5760 2024 c-153 -30 -297 -139 -367 -279 -56 -111 -67 -171 -68
-345 0 -145 3 -174 23 -240 57 -183 163 -296 333 -357 69 -25 85 -27 244 -27
150 0 179 2 245 23 132 41 130 39 130 132 0 73 -2 80 -17 74 -198 -80 -427
-97 -553 -39 -110 50 -190 178 -203 327 l-6 67 415 0 416 0 -4 153 c-4 140 -7
157 -33 217 -36 82 -58 115 -109 163 -58 55 -123 95 -181 113 -50 16 -217 27
-265 18z m217 -172 c55 -21 89 -50 122 -105 27 -44 50 -134 51 -194 l0 -43
-310 0 -310 0 0 41 c0 69 62 206 115 252 18 15 75 45 115 60 36 13 171 6 217
-11z"/>
<path d="M10115 2016 c-140 -34 -250 -129 -312 -271 -49 -110 -66 -201 -66
-350 0 -119 4 -153 26 -230 39 -139 61 -180 146 -264 65 -66 86 -80 146 -101
60 -21 87 -25 190 -25 108 1 127 4 185 28 43 18 86 48 128 87 l62 59 0 -147
c-1 -137 -3 -151 -28 -209 -69 -159 -186 -207 -444 -184 -83 7 -144 19 -208
41 -50 16 -96 30 -101 30 -6 0 -9 -33 -7 -82 l3 -82 46 -18 c95 -35 194 -48
362 -48 130 0 180 4 240 20 123 31 216 102 270 205 56 105 57 121 57 858 l0
677 -73 0 -74 0 -12 -68 c-18 -103 -20 -104 -90 -40 -33 31 -84 67 -113 81
-95 45 -229 58 -333 33z m286 -168 c49 -17 76 -33 115 -74 86 -88 108 -179
101 -434 -4 -165 -5 -178 -31 -235 -43 -94 -95 -139 -189 -165 -75 -20 -203
-17 -257 7 -95 42 -136 96 -177 233 -19 62 -23 99 -23 213 0 205 36 317 133
407 75 70 205 90 328 48z"/>
<path d="M3456 1983 c4 -16 19 -59 35 -98 15 -38 44 -115 64 -170 20 -55 45
-120 55 -145 11 -25 43 -108 71 -185 29 -77 65 -174 81 -215 16 -41 33 -86 38
-100 4 -14 20 -56 35 -95 14 -38 34 -90 42 -115 25 -72 24 -71 145 -68 l109 3
25 65 c14 36 34 85 44 110 11 25 43 108 71 185 29 77 65 174 81 215 16 41 33
86 38 100 4 14 20 55 34 93 166 432 162 418 141 433 -12 9 -46 14 -92 14 -92
0 -84 10 -158 -205 -8 -22 -28 -78 -45 -125 -18 -47 -38 -103 -45 -125 -8 -22
-26 -71 -40 -110 -36 -96 -75 -204 -85 -240 -42 -138 -83 -246 -91 -234 -5 8
-9 21 -9 30 0 17 -64 214 -119 364 -15 44 -56 157 -89 250 -33 94 -72 202 -87
240 -14 39 -31 86 -37 105 -5 19 -15 38 -22 42 -6 4 -53 8 -104 8 l-92 0 6
-27z"/>
<path d="M4800 1400 l0 -611 93 3 92 3 3 595 c2 550 1 596 -15 608 -10 7 -48
12 -95 12 l-78 0 0 -610z"/>
<path d="M9220 1400 l0 -610 90 0 90 0 0 604 c0 541 -2 604 -16 610 -9 3 -49
6 -90 6 l-74 0 0 -610z"/>
<path d="M17595 1474 c-176 -15 -447 -86 -683 -179 -196 -76 -284 -97 -417
-97 -210 -1 -424 83 -587 230 -21 19 -38 33 -39 31 -4 -23 -7 -45 -13 -110 -4
-42 -15 -108 -26 -145 l-19 -69 27 -23 c52 -43 267 -142 368 -168 78 -21 131
-27 251 -31 196 -7 302 14 533 102 353 135 504 169 735 169 119 0 172 -5 255
-23 153 -33 331 -106 488 -199 29 -18 55 -32 57 -32 2 0 38 55 80 122 69 110
75 122 59 132 -308 188 -591 281 -884 290 -74 2 -157 2 -185 0z"/>
<path d="M13814 1362 c14 -120 96 -313 175 -412 l20 -25 125 125 c109 108 124
126 112 140 -23 26 -66 118 -79 170 l-13 51 -173 2 -173 2 6 -53z"/>
<path d="M15458 1412 l-247 -2 -10 -43 c-6 -23 -29 -78 -51 -122 l-41 -79 121
-121 121 -120 35 40 c47 55 119 204 145 300 12 44 23 82 25 84 2 2 31 -24 65
-58 34 -34 64 -59 66 -57 9 9 33 170 26 175 -5 3 -119 5 -255 3z"/>
<path d="M14237 942 c-64 -64 -117 -120 -117 -124 0 -14 146 -102 223 -135 79
-33 193 -63 243 -63 l24 0 0 170 0 169 -42 11 c-80 21 -105 31 -152 60 -26 17
-50 30 -54 30 -4 0 -60 -53 -125 -118z"/>
<path d="M14935 1025 c-33 -19 -85 -41 -115 -48 l-55 -14 -3 -172 -2 -171 28
0 c42 0 169 34 243 65 67 29 191 105 204 125 5 8 -36 55 -111 131 -65 65 -121
119 -124 118 -3 0 -32 -16 -65 -34z"/>
</g>
</svg>
